:SAMPLES-PER-SECOND 30
:FRAME-RANGE 1-1086
:FULLY-SPECIFIED
:DEGREES
849
root  37.3568 38.8815 -107.764 13.4474 -70.646 -5.99634
RightUpLeg  -22.5141 -7.03904 -8.7836
RightLeg  4.53377 -13.0076 -0.0349691
RightFoot  -2.68463 -0.728061 9.35669
RightToes  1.21801e-010 1.2921e-014 -6.02303e-014
Spine  -4.84565 4.48842 9.33817
Spine1  9.52401 7.63445 -12.3706
HEad  34.299 -18.3435 -10.5942
LeftShoulder1  -1.49774 7.90258 -26.5342
LeftArm  -16.6131 26.8629 -53.1357
LeftForeArm  10.615 -4.26449 -8.55708
LeftHand  -0.211295 1.9326 6.87996
RightShoulder  1.89962 3.57071 21.3731
RightArm  -15.8203 -4.86552 50.5848
RightForeArm  47.3082 -4.63182 9.67652
RightHand  0.105059 -6.41268 -14.0595
LeftUpLeg  3.39929 -1.45852 9.96516
LeftLeg  16.6258 -14.093 -2.81843
LeftFoot  -17.3235 -0.276075 -7.26103
LeftToes  3.79492e-011 -8.60219e-011 1.56273e-011
850
root  35.8662 39.0487 -108.145 13.4087 -69.344 -6.48907
RightUpLeg  -21.0327 -5.91667 -7.71578
RightLeg  6.56824 -14.01 -1.22638
RightFoot  0.582697 -1.05754 10.1396
RightToes  1.21801e-010 1.2921e-014 -6.02303e-014
Spine  -5.38206 4.41714 10.2619
Spine1  10.0163 7.21612 -11.2927
HEad  35.2778 -17.8429 -11.0995
LeftShoulder1  -1.53333 7.97605 -26.7899
LeftArm  -15.6127 27.6435 -52.9294
LeftForeArm  9.2742 -2.96414 -8.91224
LeftHand  -0.0191148 5.55441 4.43852
RightShoulder  1.80327 2.97822 22.5022
RightArm  -19.9276 -7.95942 49.9156
RightForeArm  51.3741 -6.60726 7.59222
RightHand  0.120377 -6.5019 -14.4965
LeftUpLeg  4.93934 -6.31403 11.3014
LeftLeg  17.0241 -11.0911 -2.92605
LeftFoot  -13.7537 -0.158278 -11.3896
LeftToes  3.79492e-011 -8.60219e-011 1.56273e-011
851
root  34.3733 39.102 -108.58 14.9716 -68.4405 -8.54395
RightUpLeg  -20.6352 -5.35125 -5.93467
RightLeg  9.90957 -13.2822 -1.67399
RightFoot  3.34752 -1.23241 9.7181
RightToes  1.21801e-010 1.2921e-014 -6.02303e-014
Spine  -5.49583 4.2666 11.8051
Spine1  9.80969 7.01999 -11.0518
HEad  35.6314 -17.0736 -10.9117
LeftShoulder1  -1.52899 7.89261 -27.3089
LeftArm  -14.0744 28.0375 -52.0671
LeftForeArm  10.2198 -1.3533 -9.36031
LeftHand  -0.0645519 3.7858 3.38684
RightShoulder  1.77627 2.6988 23.4361
RightArm  -23.7748 -10.2149 49.3767
RightForeArm  57.2791 -6.11837 5.68894
RightHand  0.14024 -6.72913 -13.8786
LeftUpLeg  4.12999 -8.35185 13.4129
LeftLeg  21.7491 -8.83028 -3.53627
LeftFoot  -9.66889 0.282337 -15.3158
LeftToes  3.79492e-011 -8.60219e-011 1.56273e-011
852
root  32.9751 39.1096 -108.999 16.8311 -67.5566 -10.8997
RightUpLeg  -19.9842 -7.08851 -3.95739
RightLeg  13.2333 -12.0726 -0.971468
RightFoot  1.68714 -0.996038 8.80738
RightToes  1.21801e-010 1.2921e-014 -6.02303e-014
Spine  -5.23629 3.77938 12.9085
Spine1  9.35309 6.44289 -10.511
HEad  34.8374 -16.2488 -10.2996
LeftShoulder1  -1.49367 7.77072 -27.4336
LeftArm  -13.8365 28.438 -52.4356
LeftForeArm  11.1567 0.184154 -9.52742
LeftHand  -0.0244271 5.43078 3.61655
RightShoulder  1.70653 2.41034 23.716
RightArm  -26.9868 -10.9627 49.0162
RightForeArm  63.0344 -5.6083 3.77903
RightHand  0.141718 -6.8574 -12.9128
LeftUpLeg  0.977536 -10.2358 15.0686
LeftLeg  30.1023 -4.92366 -2.73795
LeftFoot  -3.84144 1.19345 -17.7376
LeftToes  3.79492e-011 -8.60219e-011 1.56273e-011
853
root  31.7048 39.127 -109.374 18.4517 -66.3199 -13.343
RightUpLeg  -18.3465 -8.15633 -1.73595
RightLeg  15.277 -11.613 -0.761759
RightFoot  -1.31867 -0.677454 7.61155
RightToes  1.21801e-010 1.2921e-014 -6.02303e-014
Spine  -4.50012 3.0427 13.5475
Spine1  8.96913 5.48661 -9.13576
HEad  33.479 -15.9944 -9.27648
LeftShoulder1  -1.31311 7.26724 -27.1289
LeftArm  -14.32 28.7613 -53.9884
LeftForeArm  12.4429 1.2148 -9.52672
LeftHand  -0.0370214 4.92826 3.41994
RightShoulder  1.64126 2.19545 23.6869
RightArm  -28.6499 -11.034 48.249
RightForeArm  66.1761 -5.30419 2.64035
RightHand  0.160334 -7.13435 -12.2187
LeftUpLeg  -3.88689 -12.5705 16.2412
LeftLeg  40.475 -1.00969 -0.543062
LeftFoot  4.06874 2.18049 -16.2092
LeftToes  3.79492e-011 -8.60219e-011 1.56273e-011
854
root  30.4827 39.143 -109.705 18.2326 -65.4148 -13.7723
RightUpLeg  -16.6586 -7.69333 -0.475124
RightLeg  17.0091 -12.6626 -1.26941
RightFoot  -4.10029 -0.467767 6.94174
RightToes  1.21801e-010 1.2921e-014 -6.02303e-014
Spine  -4.10863 2.34243 12.8808
Spine1  8.95564 4.50878 -7.15617
HEad  32.5352 -16.2649 -7.62824
LeftShoulder1  -1.15813 6.87402 -26.4239
LeftArm  -14.1999 28.8887 -55.7073
LeftForeArm  12.7201 0.983419 -9.81499
LeftHand  -0.0170828 5.72739 3.50735
RightShoulder  1.61913 2.05245 24.0877
RightArm  -28.8322 -10.2121 47.0196
RightForeArm  67.3044 -5.20983 2.32932
RightHand  0.209506 -7.52562 -12.6775
LeftUpLeg  -9.0626 -14.0322 15.7551
LeftLeg  49.4728 1.31192 2.08221
LeftFoot  12.7182 1.11536 -5.59816
LeftToes  3.79492e-011 -8.60219e-011 1.56273e-011
855
root  29.1697 39.2245 -109.926 17.5631 -66.0989 -13.9821
RightUpLeg  -14.0408 -7.58297 0.400079
RightLeg  17.4005 -12.0252 -1.22082
RightFoot  -6.41562 -0.309275 6.16833
RightToes  1.21801e-010 1.2921e-014 -6.02303e-014
Spine  -4.12663 2.24997 12.8584
Spine1  9.39334 4.5615 -7.31465
HEad  32.4697 -17.0815 -5.97946
LeftShoulder1  -1.01983 6.51033 -25.7752
LeftArm  -13.9458 28.8405 -56.3738
LeftForeArm  15.2734 0.483637 -10.0174
LeftHand  -0.0477353 4.30581 2.8829
RightShoulder  1.65368 2.11446 24.3985
RightArm  -28.4744 -8.98548 46.055
RightForeArm  66.6609 -5.2467 2.40535
RightHand  0.213364 -7.43225 -13.3995
LeftUpLeg  -11.9882 -13.988 14.2381
LeftLeg  55.1527 1.44908 2.73565
LeftFoot  8.86124 0.683793 -4.14152
LeftToes  3.79492e-011 -8.60219e-011 1.56273e-011
856
root  27.8679 39.271 -110.123 16.2172 -67.0749 -13.351
RightUpLeg  -11.5834 -8.30738 0.867818
RightLeg  17.8557 -10.407 -1.08903
RightFoot  -8.70348 -0.189695 5.66356
RightToes  1.21801e-010 1.2921e-014 -6.02303e-014
Spine  -4.10488 2.18493 12.1945
Spine1  9.47401 4.5263 -7.39676
HEad  32.854 -18.0672 -4.96408
LeftShoulder1  -0.931354 6.23523 -25.7463
LeftArm  -12.4777 28.2872 -55.8645
LeftForeArm  16.8347 -0.543054 -10.503
LeftHand  -0.048627 4.11778 2.60244
RightShoulder  1.6934 2.22666 24.5074
RightArm  -28.273 -7.1887 45.5247
RightForeArm  65.6263 -5.28306 2.39374
RightHand  0.241688 -7.55969 -14.0873
LeftUpLeg  -14.6134 -12.6569 12.2072
LeftLeg  57.6751 0.994279 2.22776
LeftFoot  3.91572 0.620477 -4.80936
LeftToes  3.79492e-011 -8.60219e-011 1.56273e-011
857
root  26.6159 39.2703 -110.278 14.3864 -67.7803 -12.0311
RightUpLeg  -9.35386 -8.86673 0.988074
RightLeg  18.4341 -9.2833 -1.15796
RightFoot  -10.9547 -0.0920225 5.21807
RightToes  1.21801e-010 1.2921e-014 -6.02303e-014
Spine  -3.7078 1.90094 11.3265
Spine1  8.91348 4.18636 -7.3389
HEad  33.3018 -19.068 -4.73321
LeftShoulder1  -0.831613 5.94009 -25.5169
LeftArm  -11.3527 27.6385 -55.2915
LeftForeArm  19.0551 -1.59571 -10.8044
LeftHand  -0.0653528 3.49395 2.98442
RightShoulder  1.68707 2.22098 24.4193
RightArm  -27.899 -4.72138 45.5077
RightForeArm  65.0048 -5.31765 2.46423
RightHand  0.255456 -7.58354 -14.6202
LeftUpLeg  -17.4894 -10.6555 9.82472
LeftLeg  57.7325 1.17842 2.54736
LeftFoot  0.829675 0.426332 -4.04612
LeftToes  3.79492e-011 -8.60219e-011 1.56273e-011
858
root  25.4113 39.2365 -110.402 12.6382 -68.4892 -10.6238
RightUpLeg  -7.39124 -9.49732 1.01005
RightLeg  19.0933 -8.12518 -1.30466
RightFoot  -13.0053 -0.0195414 4.72827
RightToes  1.21801e-010 1.2921e-014 -6.02303e-014
Spine  -3.30824 1.52025 10.3901
Spine1  8.28848 3.68242 -7.21807
HEad  32.9662 -19.6594 -4.65017
LeftShoulder1  -0.694034 5.5321 -25.1101
LeftArm  -11.0991 27.2085 -54.8559
LeftForeArm  20.3297 -3.06866 -10.8337
LeftHand  -0.0486149 4.27012 2.90284
RightShoulder  1.70568 2.35897 23.9851
RightArm  -27.4606 -1.86348 46.1759
RightForeArm  64.47 -5.35576 2.57557
RightHand  0.21873 -7.28995 -14.5979
LeftUpLeg  -20.366 -8.04141 7.49234
LeftLeg  55.5612 1.84623 3.3995
LeftFoot  -2.12821 0.403124 -4.84386
LeftToes  3.79492e-011 -8.60219e-011 1.56273e-011
859
root  24.225 39.1996 -110.5 10.6608 -69.3789 -8.92999
RightUpLeg  -5.37998 -10.597 0.748999
RightLeg  19.54 -6.38058 -1.2282
RightFoot  -14.8167 0.0340958 4.43351
RightToes  1.21801e-010 1.2921e-014 -6.02303e-014
Spine  -2.6454 1.18309 9.13402
Spine1  7.52404 3.16479 -7.03034
HEad  31.8244 -20.2441 -4.49764
LeftShoulder1  -0.572802 5.17275 -24.5968
LeftArm  -9.93696 25.9956 -54.309
LeftForeArm  20.3745 -3.6991 -11.074
LeftHand  -0.0404996 4.70334 3.00935
RightShoulder  1.69465 2.38391 23.6408
RightArm  -26.2577 1.30621 46.9995
RightForeArm  63.3752 -5.48774 3.12884
RightHand  0.203341 -7.16349 -14.6114
LeftUpLeg  -22.8935 -5.93611 5.17124
LeftLeg  51.2922 2.73141 4.10709
LeftFoot  -4.46121 0.335939 -5.14184
LeftToes  3.79492e-011 -8.60219e-011 1.56273e-011
860
root  23.0521 39.1447 -110.568 8.58356 -70.3707 -7.02661
RightUpLeg  -3.31071 -10.4743 0.451363
RightLeg  19.5553 -5.75331 -1.42593
RightFoot  -16.509 0.061076 3.83141
RightToes  1.21801e-010 1.2921e-014 -6.02303e-014
Spine  -2.17817 0.953002 7.66813
Spine1  6.93329 2.71083 -6.66712
HEad  30.4516 -20.8787 -4.00288
LeftShoulder1  -0.37149 4.53148 -24.2005
LeftArm  -7.82634 23.6778 -53.2065
LeftForeArm  20.1864 -2.66707 -11.5688
LeftHand  -0.0404608 4.76258 3.28033
RightShoulder  1.72746 2.52019 23.5036
RightArm  -24.6408 4.47631 47.8571
RightForeArm  62.0561 -5.66295 3.90085
RightHand  0.189563 -7.03839 -14.7188
LeftUpLeg  -25.012 -4.27941 3.21426
LeftLeg  45.2568 3.93757 4.65103
LeftFoot  -5.47236 0.323384 -5.66615
LeftToes  3.79492e-011 -8.60219e-011 1.56273e-011
